<?xml version="1.0" encoding="UTF-8" standalone="no"?>
<svg
   viewBox="0 0 576 512"
   version="1.1"
   id="svg1"
   sodipodi:docname="icon.svg"
   inkscape:version="1.3.2 (091e20e, 2023-11-25, custom)"
   xmlns:inkscape="http://www.inkscape.org/namespaces/inkscape"
   xmlns:sodipodi="http://sodipodi.sourceforge.net/DTD/sodipodi-0.dtd"
   xmlns="http://www.w3.org/2000/svg"
   xmlns:svg="http://www.w3.org/2000/svg">
  <defs
     id="defs1" />
  <sodipodi:namedview
     id="namedview1"
     pagecolor="#ffffff"
     bordercolor="#666666"
     borderopacity="1.0"
     inkscape:showpageshadow="2"
     inkscape:pageopacity="0.0"
     inkscape:pagecheckerboard="0"
     inkscape:deskcolor="#d1d1d1"
     showgrid="false"
     inkscape:zoom="1.6816406"
     inkscape:cx="287.81417"
     inkscape:cy="256"
     inkscape:window-width="1920"
     inkscape:window-height="1057"
     inkscape:window-x="-8"
     inkscape:window-y="-8"
     inkscape:window-maximized="1"
     inkscape:current-layer="svg1" />
  <!--! Font Awesome Pro 6.5.1 by @fontawesome - https://fontawesome.com License - https://fontawesome.com/license (Commercial License) Copyright 2023 Fonticons, Inc. -->
  <path
     d="M234.7 42.7L197 56.8c-3 1.1-5 4-5 7.2s2 6.1 5 7.2l37.7 14.1L248.8 123c1.1 3 4 5 7.2 5s6.1-2 7.2-5l14.1-37.7L315 71.2c3-1.1 5-4 5-7.2s-2-6.1-5-7.2L277.3 42.7 263.2 5c-1.1-3-4-5-7.2-5s-6.1 2-7.2 5L234.7 42.7zM46.1 395.4c-18.7 18.7-18.7 49.1 0 67.9l34.6 34.6c18.7 18.7 49.1 18.7 67.9 0L529.9 116.5c18.7-18.7 18.7-49.1 0-67.9L495.3 14.1c-18.7-18.7-49.1-18.7-67.9 0L46.1 395.4zM484.6 82.6l-105 105-23.3-23.3 105-105 23.3 23.3zM7.5 117.2C3 118.9 0 123.2 0 128s3 9.1 7.5 10.8L64 160l21.2 56.5c1.7 4.5 6 7.5 10.8 7.5s9.1-3 10.8-7.5L128 160l56.5-21.2c4.5-1.7 7.5-6 7.5-10.8s-3-9.1-7.5-10.8L128 96 106.8 39.5C105.1 35 100.8 32 96 32s-9.1 3-10.8 7.5L64 96 7.5 117.2zm352 256c-4.5 1.7-7.5 6-7.5 10.8s3 9.1 7.5 10.8L416 416l21.2 56.5c1.7 4.5 6 7.5 10.8 7.5s9.1-3 10.8-7.5L480 416l56.5-21.2c4.5-1.7 7.5-6 7.5-10.8s-3-9.1-7.5-10.8L480 352l-21.2-56.5c-1.7-4.5-6-7.5-10.8-7.5s-9.1 3-10.8 7.5L416 352l-56.5 21.2z"
     id="path1" />
  <path
     style="fill:#bc4f3e;fill-opacity:1;stroke-width:0.594657"
     d="m 93.267633,223.3089 c -2.639524,-0.7974 -4.948317,-2.40748 -6.28478,-4.38277 C 86.284684,217.89422 80.969952,204.33914 75.172334,188.80372 69.374716,173.26829 64.443032,160.34074 64.213042,160.07584 63.983046,159.81092 50.770519,154.70164 34.851863,148.72186 4.814782,137.43857 3.5462484,136.83179 1.3992188,132.72039 c -1.90952557,-3.6566 -0.73291752,-9.89165 2.4268019,-12.86005 1.7049946,-1.60176 3.4655081,-2.3097 34.9479043,-14.0533 L 64.168056,96.334495 74.972214,67.493612 c 5.94228,-15.862485 11.45586,-29.713039 12.252391,-30.779008 1.89578,-2.537046 5.454323,-4.305777 8.662868,-4.305777 3.08023,0 7.337077,2.025644 8.970307,4.268575 0.63784,0.87594 6.0509,14.613409 12.02904,30.52771 5.97814,15.914301 10.95765,29.000996 11.06559,29.081549 0.10794,0.08055 13.03114,4.940989 28.71822,10.800979 15.68707,5.85999 29.33038,11.19763 30.31847,11.86142 3.93082,2.64074 5.63856,8.93342 3.67183,13.52997 -1.80958,4.22925 -3.0115,4.81309 -33.43846,16.24283 -15.91866,5.97978 -29.12925,11.08906 -29.35687,11.35398 -0.22762,0.2649 -5.31558,13.53295 -11.30658,29.48453 -10.0902,26.86614 -11.05812,29.15232 -13.1379,31.03128 -3.11755,2.81652 -6.674189,3.76834 -10.153487,2.71725 z"
     id="path2" />
  <path
     style="fill:#bc4f3e;fill-opacity:1;stroke-width:0.594657"
     d="m 251.27885,125.62137 c -1.73668,-1.65523 -3.02453,-4.63047 -8.97228,-20.72818 -3.81949,-10.337553 -7.11772,-19.065024 -7.32939,-19.394387 -0.21166,-0.329363 -8.93909,-3.779381 -19.39427,-7.66671 -10.45518,-3.887328 -19.74931,-7.689675 -20.6536,-8.449671 -2.36646,-1.988813 -3.21568,-5.226324 -2.08239,-7.938676 0.48889,-1.170083 1.51854,-2.592813 2.28812,-3.161629 0.76957,-0.568816 10.05281,-4.281541 20.62941,-8.250499 l 19.23018,-7.216287 6.99897,-18.761697 C 245.84303,13.7347 249.31524,4.6890219 249.70961,3.9521266 250.68599,2.1277589 253.83257,0.30177441 256,0.30177441 c 2.14266,0 5.31077,1.81993029 6.26193,3.59718929 0.37873,0.7076557 3.85197,9.7084533 7.71832,20.0017723 3.86635,10.29332 7.11921,18.804032 7.22857,18.912695 0.10937,0.108663 8.89571,3.452153 19.52521,7.429978 10.6295,3.977825 19.92069,7.78639 20.64709,8.463477 3.13033,2.917838 2.97148,7.917926 -0.33993,10.699899 -0.88867,0.746593 -10.16976,4.546061 -20.62465,8.443261 -10.45488,3.897194 -19.10073,7.155595 -19.21298,7.240887 -0.11226,0.08529 -3.40977,8.804688 -7.3278,19.376437 -6.10706,16.4783 -7.41327,19.49717 -9.153,21.154 -1.67718,1.59726 -2.49674,1.93264 -4.72276,1.93264 -2.22635,0 -3.04506,-0.33515 -4.72115,-1.93264 z"
     id="path3" />
  <path
     style="fill:#bc4f3e;fill-opacity:1;stroke-width:0.594657"
     d="m 106.14634,510.86192 c -5.70568,-1.11784 -11.32039,-3.26757 -16.475626,-6.30809 -3.485123,-2.0555 -8.290972,-6.48276 -24.45833,-22.5316 C 54.145862,471.03683 43.780211,460.30941 42.177605,458.18351 30.184038,442.27372 29.156516,421.22875 39.544382,404.25171 42.055569,400.14763 64.717504,377.263 235.12033,206.75379 341.12494,100.683 429.46156,12.612724 431.42393,11.042053 c 7.27954,-5.8265074 15.05362,-9.087161 24.52902,-10.2881151 9.79108,-1.24096286 20.84446,1.0707467 29.46407,6.1621254 2.22303,1.3130867 7.57495,5.6790197 11.89315,9.7020747 12.81835,11.942229 35.65801,35.439925 38.17676,39.276687 8.07243,12.296576 10.21641,27.84582 5.69892,41.331656 -3.9535,11.802209 12.85114,-5.601798 -202.74608,209.977419 l -196.01933,196.00297 -5.3749,2.72434 c -2.95621,1.4984 -7.37154,3.28833 -9.81185,3.97764 -5.72515,1.61717 -15.45348,2.05685 -21.08735,0.95307 z M 432.46332,135.43448 c 28.70034,-28.69895 52.18244,-52.450656 52.18244,-52.781559 0,-0.330903 -5.21931,-5.815802 -11.59847,-12.188668 l -11.59847,-11.587032 -52.77012,52.770119 -52.77012,52.77012 11.58703,11.59847 c 6.37287,6.37916 11.85663,11.59847 12.18614,11.59847 0.32952,0 24.08122,-23.48096 52.78157,-52.17992 z"
     id="path4" />
  <path
     style="fill:#bc4f3e;fill-opacity:1;stroke-width:0.594657"
     d="m 442.903,478.37774 c -1.20893,-0.63847 -2.84844,-2.03152 -3.64336,-3.09566 -0.79493,-1.06415 -6.19196,-14.64561 -11.9934,-30.18103 -5.80145,-15.53543 -10.85183,-28.56873 -11.22307,-28.96289 -0.37125,-0.39417 -13.20129,-5.41309 -28.5112,-11.15317 -15.30991,-5.74006 -28.60897,-10.8361 -29.55346,-11.32451 -3.76663,-1.9478 -6.34459,-7.54209 -5.39426,-11.7058 0.69553,-3.04739 2.60353,-5.93392 4.76223,-7.20459 1.00293,-0.59035 14.55564,-5.8514 30.11712,-11.69122 15.56149,-5.83982 28.43074,-10.75499 28.59835,-10.92259 0.16759,-0.16761 5.10613,-13.09913 10.97452,-28.73672 5.86838,-15.6376 11.25863,-29.29136 11.97833,-30.34169 3.73307,-5.44805 11.39272,-6.21258 16.45172,-1.64208 2.11447,1.9103 3.01438,4.0393 13.11974,31.03885 5.96726,15.94333 11.04773,29.20462 11.28996,29.46952 0.24222,0.26492 13.46476,5.3742 29.38341,11.35398 30.42696,11.42974 31.62889,12.01358 33.43846,16.24283 2.00829,4.69365 0.27728,10.84445 -3.80159,13.50824 -1.22002,0.79675 -14.92902,6.19416 -30.46444,11.99423 -15.53543,5.80007 -28.33174,10.60819 -28.43623,10.68472 -0.10451,0.0765 -5.08495,13.11719 -11.06765,28.97925 -5.98271,15.86206 -11.45168,29.64627 -12.15329,30.63158 -2.78304,3.90843 -9.47086,5.38309 -13.87189,3.05875 z"
     id="path5" />
</svg>
